<svg width="32" height="32" viewBox="0 0 32 32" fill="none" xmlns="http://www.w3.org/2000/svg">
<path fill-rule="evenodd" clip-rule="evenodd" d="M5.33335 13.5533L2.71069 11.4053C2.8188 10.6876 3.11992 10.0127 3.58186 9.45284C4.04381 8.89296 4.64921 8.46914 5.33335 8.22667V13.552V13.5533ZM6.66669 14.6467L14.3094 20.908C14.7861 21.2989 15.3835 21.5125 16 21.5125C16.6165 21.5125 17.2139 21.2989 17.6907 20.908L25.3334 14.6467V6.66667C25.3334 5.60581 24.9119 4.58839 24.1618 3.83824C23.4116 3.0881 22.3942 2.66667 21.3334 2.66667H10.6667C9.60582 2.66667 8.58841 3.0881 7.83826 3.83824C7.08811 4.58839 6.66669 5.60581 6.66669 6.66667V14.6467ZM29.2894 11.4053L26.6667 13.5533V8.22801C27.3507 8.47037 27.9559 8.89399 28.4179 9.45361C28.8798 10.0132 29.181 10.6878 29.2894 11.4053V11.4053ZM17.688 24.328L29.3334 14.8133V25.3333C29.3334 26.3942 28.9119 27.4116 28.1618 28.1618C27.4116 28.9119 26.3942 29.3333 25.3334 29.3333H6.66669C5.60582 29.3333 4.58841 28.9119 3.83826 28.1618C3.08811 27.4116 2.66669 26.3942 2.66669 25.3333V14.812L14.312 24.328C14.7884 24.7175 15.3847 24.9303 16 24.9303C16.6153 24.9303 17.2117 24.7175 17.688 24.328V24.328ZM13.3334 12C12.9797 12 12.6406 12.1405 12.3905 12.3905C12.1405 12.6406 12 12.9797 12 13.3333C12 13.687 12.1405 14.0261 12.3905 14.2761C12.6406 14.5262 12.9797 14.6667 13.3334 14.6667H18.6667C19.0203 14.6667 19.3594 14.5262 19.6095 14.2761C19.8595 14.0261 20 13.687 20 13.3333C20 12.9797 19.8595 12.6406 19.6095 12.3905C19.3594 12.1405 19.0203 12 18.6667 12H13.3334ZM13.3334 6.66667C12.9797 6.66667 12.6406 6.80715 12.3905 7.0572C12.1405 7.30724 12 7.64638 12 8.00001C12 8.35363 12.1405 8.69277 12.3905 8.94281C12.6406 9.19286 12.9797 9.33334 13.3334 9.33334H18.6667C19.0203 9.33334 19.3594 9.19286 19.6095 8.94281C19.8595 8.69277 20 8.35363 20 8.00001C20 7.64638 19.8595 7.30724 19.6095 7.0572C19.3594 6.80715 19.0203 6.66667 18.6667 6.66667H13.3334Z" fill="white"/>
</svg>
