<svg width="600" height="600" viewBox="0 0 600 600" fill="none" xmlns="http://www.w3.org/2000/svg">
<path d="M300 600C465.685 600 600 465.685 600 300C600 134.315 465.685 0 300 0C134.315 0 0 134.315 0 300C0 465.685 134.315 600 300 600Z" fill="#87F1FF"/>
<path opacity="0.2" d="M78.4897 99.6237C50.5064 165.082 46.7103 238.357 67.7797 306.356C88.849 374.355 133.411 432.647 193.503 470.815C253.594 508.983 325.3 524.54 395.806 514.706C466.312 504.873 531.024 470.289 578.378 417.135C561.284 457.127 535.699 492.924 503.397 522.047C471.094 551.169 432.847 572.921 391.303 585.794C349.76 598.668 305.914 602.355 262.804 596.601C219.694 590.847 178.351 575.789 141.638 552.47C104.926 529.151 73.7215 498.13 50.1881 461.555C26.6547 424.979 11.3546 383.725 5.3478 340.649C-0.658983 297.574 2.77121 253.707 15.4007 212.089C28.0302 170.471 49.557 132.096 78.4897 99.6237V99.6237Z" fill="black"/>
</svg>
