<svg width="909" height="909" viewBox="0 0 909 909" fill="none" xmlns="http://www.w3.org/2000/svg">
<path d="M144.879 598.572C224.447 769.572 427.573 843.69 598.572 764.122C769.571 684.553 843.69 481.427 764.121 310.428C684.553 139.429 481.427 65.3097 310.428 144.879C139.429 224.448 65.3097 427.573 144.879 598.572Z" fill="#6C63FF"/>
<path opacity="0.2" d="M528.2 403.11C539.849 428.147 569.59 438.999 594.626 427.349C619.663 415.699 630.515 385.959 618.865 360.922C607.215 335.886 577.475 325.034 552.438 336.684C527.402 348.334 516.55 378.074 528.2 403.11Z" fill="black"/>
<path opacity="0.2" d="M190.019 560.472C210.289 604.035 262.037 622.918 305.601 602.647C349.164 582.376 368.047 530.628 347.776 487.065C327.505 443.501 275.757 424.619 232.194 444.89C188.63 465.16 169.748 516.908 190.019 560.472Z" fill="black"/>
<path opacity="0.2" d="M262.104 248.432C267.113 259.198 280.105 263.77 291.121 258.644C302.137 253.518 307.006 240.635 301.997 229.869C296.987 219.104 283.996 214.532 272.98 219.658C261.964 224.784 257.095 237.666 262.104 248.432Z" fill="black"/>
<path opacity="0.2" d="M680.285 459.735C682.964 465.493 689.805 467.989 695.563 465.309C701.322 462.63 703.817 455.79 701.138 450.031C698.459 444.273 691.618 441.777 685.86 444.456C680.101 447.136 677.606 453.976 680.285 459.735Z" fill="black"/>
<path opacity="0.2" d="M413.98 439.715C417.475 447.226 426.397 450.481 433.908 446.986C441.419 443.491 444.674 434.569 441.179 427.058C437.684 419.547 428.762 416.292 421.251 419.787C413.74 423.282 410.485 432.204 413.98 439.715Z" fill="black"/>
<path opacity="0.2" d="M609.805 659.077C612.484 664.835 619.527 667.237 625.536 664.441C631.545 661.645 634.244 654.71 631.564 648.952C628.885 643.193 621.841 640.792 615.833 643.588C609.824 646.384 607.125 653.319 609.805 659.077Z" fill="black"/>
<path opacity="0.2" d="M457.997 624.383C461.958 632.896 472.069 636.585 480.582 632.624C489.094 628.663 492.784 618.552 488.823 610.039C484.862 601.527 474.75 597.837 466.238 601.798C457.726 605.759 454.036 615.871 457.997 624.383Z" fill="black"/>
<path opacity="0.2" d="M471.108 214.047C476.118 224.813 489.109 229.385 500.125 224.259C511.141 219.133 516.01 206.25 511.001 195.485C505.991 184.719 493 180.147 481.984 185.273C470.968 190.399 466.099 203.282 471.108 214.047Z" fill="black"/>
<path d="M772.663 282.201C772.821 283.195 772.7 284.097 772.3 284.906C771.915 285.707 771.257 286.341 770.327 286.807C769.011 287.467 767.737 287.461 766.506 286.789C765.296 286.125 764.2 284.813 763.218 282.854L759.325 275.086L774.345 267.559L778.022 274.897C778.94 276.728 779.292 278.305 779.079 279.629C778.872 280.968 778.168 281.938 776.967 282.54C776.237 282.906 775.497 283.053 774.746 282.982C774.001 282.926 773.307 282.665 772.663 282.201ZM773.458 272.325L769.918 274.1L771.649 277.554C772.079 278.412 772.556 278.988 773.078 279.281C773.601 279.574 774.156 279.573 774.742 279.279C775.329 278.985 775.654 278.545 775.718 277.958C775.796 277.364 775.62 276.638 775.19 275.78L773.458 272.325ZM765.707 281.284C766.165 282.2 766.66 282.811 767.19 283.118C767.727 283.44 768.31 283.443 768.939 283.127C770.184 282.503 770.343 281.269 769.419 279.424L767.386 275.369L763.674 277.229L765.707 281.284Z" fill="#EDEDED"/>
<path d="M785.889 289.097L787.411 292.518L771.14 299.755L769.618 296.334L785.889 289.097Z" fill="#EDEDED"/>
<path d="M776.849 313.931C776.35 312.666 776.16 311.425 776.282 310.207C776.424 308.998 776.852 307.926 777.566 306.99C778.28 306.055 779.232 305.352 780.423 304.881C781.613 304.411 782.789 304.274 783.95 304.469C785.111 304.664 786.149 305.157 787.063 305.949C787.999 306.749 788.716 307.782 789.216 309.046C789.715 310.311 789.894 311.548 789.752 312.757C789.625 313.96 789.205 315.029 788.49 315.965C787.776 316.9 786.824 317.603 785.633 318.074C784.443 318.544 783.267 318.681 782.106 318.486C780.945 318.291 779.9 317.801 778.971 317.015C778.056 316.224 777.349 315.196 776.849 313.931ZM779.707 312.802C780.059 313.695 780.645 314.307 781.463 314.637C782.303 314.977 783.228 314.946 784.24 314.547C785.252 314.147 785.941 313.539 786.307 312.724C786.694 311.918 786.711 311.068 786.358 310.175C786.006 309.282 785.41 308.666 784.57 308.327C783.746 307.981 782.828 308.009 781.816 308.408C780.804 308.808 780.107 309.418 779.727 310.24C779.361 311.055 779.354 311.909 779.707 312.802Z" fill="#EDEDED"/>
<path d="M784.036 333.605C783.596 332.301 783.465 331.037 783.643 329.812C783.842 328.597 784.319 327.533 785.075 326.619C785.836 325.721 786.823 325.068 788.036 324.659C789.249 324.25 790.43 324.173 791.579 324.427C792.734 324.696 793.75 325.257 794.628 326.109C795.527 326.972 796.196 328.055 796.635 329.359C797.07 330.647 797.175 331.861 796.951 333C796.747 334.15 796.219 335.113 795.367 335.89L792.961 333.636C793.868 332.621 794.12 331.515 793.716 330.317C793.405 329.392 792.843 328.729 792.033 328.327C791.222 327.925 790.293 327.9 789.247 328.252C788.201 328.605 787.477 329.187 787.075 329.998C786.672 330.809 786.627 331.676 786.939 332.601C787.348 333.814 788.218 334.542 789.55 334.786L788.976 338.044C787.857 337.931 786.862 337.482 785.989 336.695C785.121 335.924 784.47 334.894 784.036 333.605Z" fill="#EDEDED"/>
<path d="M794.754 350.483L792.557 349.23L789.392 350.12L788.379 346.516L805.523 341.697L806.536 345.301L796.832 348.029L803.303 351.894L804.511 356.191L797.789 352.497L792.211 360.148L790.983 355.781L794.754 350.483Z" fill="#EDEDED"/>
<path d="M795 372.787C794.695 371.445 794.694 370.174 794.996 368.974C795.318 367.785 795.901 366.775 796.746 365.944C797.594 365.128 798.643 364.579 799.891 364.295C801.14 364.012 802.322 364.056 803.44 364.426C804.561 364.812 805.515 365.473 806.302 366.41C807.107 367.36 807.662 368.505 807.967 369.847C808.267 371.174 808.248 372.392 807.909 373.502C807.59 374.625 806.966 375.529 806.039 376.215L803.875 373.728C804.882 372.811 805.245 371.736 804.965 370.503C804.75 369.551 804.259 368.834 803.493 368.351C802.727 367.869 801.806 367.75 800.73 367.994C799.653 368.238 798.873 368.743 798.391 369.508C797.908 370.274 797.775 371.133 797.99 372.085C798.273 373.333 799.065 374.146 800.365 374.524L799.462 377.706C798.361 377.48 797.416 376.932 796.628 376.06C795.843 375.205 795.3 374.114 795 372.787Z" fill="#EDEDED"/>
<path d="M812.258 391.577C812.53 393.154 812.275 394.505 811.495 395.63C810.717 396.77 809.398 397.501 807.538 397.822L800.253 399.077L799.617 395.387L806.334 394.23C807.343 394.056 808.054 393.706 808.467 393.18C808.896 392.652 809.038 391.97 808.894 391.134C808.734 390.204 808.314 389.513 807.636 389.062C806.973 388.608 806.074 388.478 804.939 388.674L798.647 389.758L798.012 386.069L815.561 383.045L816.197 386.734L810.047 387.794C810.62 388.198 811.093 388.726 811.465 389.376C811.852 390.024 812.117 390.757 812.258 391.577Z" fill="#EDEDED"/>
<path d="M815.11 411.274C815.346 413.26 815.051 414.842 814.224 416.02C813.414 417.196 812.055 417.897 810.148 418.124L802.832 418.994L802.418 415.514L804.015 415.324C802.74 414.767 801.989 413.535 801.763 411.628C801.646 410.643 801.711 409.766 801.957 408.995C802.206 408.24 802.602 407.637 803.144 407.186C803.687 406.735 804.331 406.465 805.078 406.376C806.27 406.235 807.26 406.568 808.049 407.377C808.84 408.201 809.347 409.551 809.569 411.425L809.921 414.381C810.731 414.284 811.321 413.964 811.692 413.421C812.078 412.875 812.213 412.11 812.096 411.125C812.014 410.442 811.823 409.78 811.521 409.139C811.237 408.512 810.885 407.99 810.465 407.573L812.904 405.929C813.48 406.57 813.96 407.359 814.345 408.296C814.733 409.249 814.988 410.242 815.11 411.274ZM804.376 412.26C804.451 412.896 804.661 413.443 805.006 413.901C805.366 414.358 805.845 414.656 806.441 414.794L807.752 414.638L807.449 412.088C807.268 410.563 806.676 409.86 805.675 409.979C805.199 410.036 804.839 410.264 804.597 410.663C804.372 411.077 804.298 411.609 804.376 412.26Z" fill="#EDEDED"/>
<path d="M816.463 426.429L816.751 430.162L803.878 431.158L803.589 427.425L816.463 426.429ZM818.402 428.157C818.349 427.471 818.505 426.897 818.87 426.436C819.236 425.974 819.714 425.72 820.304 425.675C820.894 425.629 821.405 425.806 821.837 426.206C822.269 426.606 822.512 427.149 822.565 427.835C822.618 428.521 822.47 429.094 822.12 429.554C821.771 430.014 821.309 430.267 820.735 430.311C820.113 430.359 819.577 430.184 819.129 429.786C818.697 429.386 818.455 428.843 818.402 428.157Z" fill="#EDEDED"/>
<path d="M817.86 447.68C817.914 449.279 817.477 450.582 816.551 451.59C815.625 452.614 814.218 453.157 812.331 453.221L804.943 453.469L804.817 449.727L811.63 449.498C812.653 449.464 813.405 449.214 813.886 448.75C814.382 448.285 814.616 447.629 814.588 446.781C814.556 445.838 814.235 445.096 813.625 444.556C813.03 444.016 812.157 443.765 811.006 443.804L804.625 444.019L804.5 440.277L817.404 439.843L817.524 443.417L816.013 443.467C816.574 443.945 817.01 444.546 817.323 445.272C817.651 445.998 817.83 446.8 817.86 447.68Z" fill="#EDEDED"/>
<path d="M807.217 487.456L804.101 487.296L804.765 474.305L821.543 475.163L820.895 487.842L817.779 487.683L818.23 478.863L814.587 478.676L814.189 486.466L811.169 486.312L811.567 478.522L807.684 478.324L807.217 487.456Z" fill="#EDEDED"/>
<path d="M815.637 505.042C815.468 506.633 814.855 507.863 813.797 508.732C812.737 509.617 811.269 509.96 809.391 509.76L802.041 508.979L802.437 505.256L809.214 505.976C810.233 506.085 811.012 505.942 811.553 505.549C812.109 505.158 812.432 504.54 812.522 503.697C812.621 502.758 812.407 501.979 811.877 501.36C811.364 500.742 810.534 500.372 809.388 500.251L803.04 499.576L803.436 495.853L816.275 497.217L815.898 500.773L814.394 500.614C814.883 501.164 815.231 501.821 815.44 502.583C815.664 503.347 815.73 504.167 815.637 505.042Z" fill="#EDEDED"/>
<path d="M800.204 525.897C799.991 525.492 799.855 525.01 799.796 524.45C799.75 523.909 799.772 523.346 799.863 522.761C800.097 521.242 800.666 520.124 801.571 519.406C802.472 518.703 803.674 518.468 805.177 518.7L810.418 519.509L810.722 517.541L813.569 517.98L813.265 519.949L816.372 520.429L815.801 524.129L812.693 523.649L812.203 526.827L809.356 526.388L809.847 523.209L804.653 522.407C804.115 522.324 803.675 522.394 803.333 522.616C803.005 522.857 802.801 523.23 802.723 523.736C802.633 524.322 802.714 524.844 802.967 525.304L800.204 525.897Z" fill="#EDEDED"/>
<path d="M809.589 543.54C809.271 545.108 808.544 546.275 807.409 547.04C806.27 547.821 804.776 548.023 802.926 547.647L795.682 546.175L796.428 542.506L803.107 543.863C804.111 544.067 804.9 543.999 805.475 543.659C806.066 543.322 806.446 542.738 806.615 541.907C806.803 540.982 806.663 540.186 806.194 539.519C805.741 538.856 804.95 538.409 803.822 538.18L797.565 536.908L798.311 533.239L815.762 536.786L815.017 540.455L808.902 539.212C809.289 539.797 809.538 540.46 809.649 541.201C809.775 541.945 809.755 542.725 809.589 543.54Z" fill="#EDEDED"/>
<path d="M802.943 570.455L790.45 567.193L791.347 563.757L792.833 564.145C792.417 563.523 792.148 562.841 792.028 562.099C791.923 561.36 791.972 560.604 792.174 559.83C792.602 558.189 793.414 557.012 794.609 556.299C795.804 555.585 797.33 555.471 799.188 555.956L806.247 557.799L805.301 561.421L798.776 559.718C796.764 559.193 795.537 559.774 795.097 561.461C794.87 562.328 794.967 563.098 795.387 563.769C795.822 564.445 796.597 564.929 797.712 565.22L803.889 566.832L802.943 570.455Z" fill="#EDEDED"/>
<path d="M786.476 579.782C786.799 578.76 787.235 577.799 787.787 576.899C788.354 576.004 788.92 575.327 789.484 574.867L791.673 576.865C791.149 577.304 790.65 577.876 790.176 578.582C789.717 579.293 789.37 580.023 789.134 580.77C788.658 582.281 788.794 583.154 789.542 583.39C789.893 583.501 790.21 583.374 790.492 583.01C790.775 582.646 791.104 582.053 791.48 581.233C791.95 580.273 792.387 579.497 792.792 578.903C793.197 578.31 793.729 577.848 794.386 577.518C795.039 577.204 795.831 577.193 796.761 577.486C797.54 577.731 798.157 578.169 798.613 578.799C799.079 579.449 799.345 580.254 799.412 581.215C799.473 582.19 799.319 583.266 798.949 584.441C798.675 585.311 798.304 586.142 797.837 586.934C797.379 587.746 796.894 588.382 796.381 588.84L794.215 586.85C795.166 585.958 795.844 584.872 796.248 583.59C796.488 582.827 796.562 582.221 796.468 581.772C796.375 581.323 796.16 581.046 795.824 580.94C795.443 580.82 795.111 580.942 794.828 581.306C794.546 581.67 794.194 582.281 793.773 583.138C793.288 584.092 792.846 584.858 792.445 585.437C792.06 586.02 791.541 586.469 790.889 586.783C790.236 587.098 789.46 587.113 788.559 586.83C787.796 586.589 787.189 586.146 786.738 585.501C786.287 584.856 786.033 584.038 785.976 583.047C785.93 582.076 786.097 580.988 786.476 579.782Z" fill="#EDEDED"/>
<path d="M794.545 597.053L793.283 600.577L781.127 596.226L782.389 592.701L794.545 597.053ZM795.609 599.422C795.841 598.774 796.218 598.314 796.74 598.042C797.262 597.77 797.802 597.734 798.36 597.934C798.917 598.133 799.311 598.504 799.542 599.045C799.773 599.587 799.773 600.181 799.541 600.829C799.309 601.477 798.939 601.939 798.432 602.217C797.925 602.494 797.4 602.536 796.858 602.341C796.271 602.131 795.854 601.753 795.608 601.206C795.377 600.664 795.377 600.069 795.609 599.422Z" fill="#EDEDED"/>
<path d="M788.141 614.549C787.39 616.403 786.368 617.646 785.076 618.279C783.799 618.918 782.27 618.877 780.491 618.157L773.662 615.39L774.977 612.143L776.468 612.746C775.62 611.643 775.556 610.202 776.277 608.423C776.649 607.503 777.13 606.765 777.717 606.209C778.299 605.668 778.936 605.331 779.629 605.197C780.322 605.064 781.017 605.138 781.714 605.42C782.826 605.871 783.533 606.64 783.834 607.729C784.129 608.833 783.923 610.259 783.214 612.009L782.097 614.768C782.853 615.074 783.524 615.078 784.111 614.781C784.712 614.489 785.199 613.884 785.572 612.964C785.83 612.327 785.982 611.654 786.026 610.948C786.08 610.261 786.023 609.634 785.856 609.066L788.785 608.803C788.981 609.641 789.021 610.564 788.907 611.571C788.787 612.592 788.531 613.585 788.141 614.549ZM778.261 610.236C778.021 610.829 777.941 611.41 778.022 611.978C778.117 612.552 778.393 613.043 778.849 613.452L780.072 613.948L781.036 611.568C781.613 610.144 781.434 609.243 780.5 608.864C780.055 608.684 779.63 608.711 779.225 608.943C778.829 609.197 778.508 609.628 778.261 610.236Z" fill="#EDEDED"/>
<path d="M768.292 627C768.741 626.027 769.296 625.129 769.958 624.306C770.634 623.49 771.28 622.89 771.898 622.506L773.816 624.765C773.241 625.134 772.673 625.638 772.114 626.279C771.568 626.926 771.132 627.605 770.803 628.317C770.14 629.756 770.164 630.639 770.876 630.967C771.21 631.122 771.54 631.036 771.866 630.711C772.193 630.385 772.594 629.839 773.071 629.073C773.659 628.181 774.191 627.466 774.668 626.929C775.145 626.391 775.731 626 776.425 625.757C777.112 625.527 777.899 625.617 778.785 626.026C779.526 626.368 780.083 626.88 780.455 627.563C780.835 628.267 780.997 629.099 780.941 630.06C780.879 631.036 780.59 632.083 780.074 633.202C779.692 634.03 779.219 634.807 778.654 635.534C778.098 636.281 777.536 636.85 776.969 637.24L775.072 634.991C776.129 634.228 776.939 633.236 777.502 632.015C777.837 631.289 777.987 630.697 777.951 630.24C777.915 629.783 777.737 629.481 777.418 629.333C777.055 629.166 776.71 629.245 776.384 629.57C776.057 629.895 775.631 630.456 775.105 631.253C774.503 632.138 773.967 632.842 773.496 633.366C773.04 633.895 772.469 634.275 771.782 634.504C771.095 634.733 770.322 634.65 769.465 634.255C768.739 633.92 768.193 633.403 767.827 632.706C767.462 632.009 767.313 631.165 767.382 630.175C767.459 629.206 767.763 628.148 768.292 627Z" fill="#EDEDED"/>
<path d="M759.365 646.986C759.291 646.534 759.314 646.033 759.435 645.484C759.562 644.955 759.761 644.428 760.032 643.902C760.734 642.535 761.627 641.654 762.712 641.258C763.789 640.876 765.004 641.033 766.356 641.727L771.074 644.151L771.984 642.379L774.546 643.695L773.636 645.467L776.432 646.903L774.722 650.234L771.925 648.797L770.456 651.658L767.894 650.342L769.363 647.481L764.688 645.079C764.204 644.831 763.765 644.758 763.37 644.861C762.982 644.986 762.672 645.276 762.438 645.731C762.167 646.258 762.079 646.779 762.174 647.295L759.365 646.986Z" fill="#EDEDED"/>
<path d="M97.4531 530.303L99.4478 535.296L96.506 536.471L91.0738 522.876L94.0157 521.701L96.0104 526.693L108.669 521.635L110.112 525.245L97.4531 530.303Z" fill="#EDEDED"/>
<path d="M92.8918 509.894C92.1681 509.636 91.5482 509.191 91.0321 508.557C90.5117 507.908 90.1139 507.107 89.8387 506.154L93.1591 505.195C93.2438 505.604 93.306 505.877 93.346 506.015C93.6433 507.045 94.1684 507.768 94.9212 508.184C95.6586 508.604 96.6038 508.647 97.7567 508.314L103.613 506.623L104.652 510.221L92.2466 513.802L91.2547 510.366L92.8918 509.894Z" fill="#EDEDED"/>
<path d="M86.7532 492.27C86.3912 490.303 86.5853 488.706 87.3355 487.478C88.0699 486.253 89.3813 485.467 91.2696 485.119L98.5159 483.786L99.15 487.232L97.5686 487.523C98.8762 487.998 99.7037 489.18 100.051 491.068C100.231 492.044 100.222 492.924 100.025 493.708C99.8244 494.477 99.468 495.104 98.9552 495.589C98.4425 496.074 97.8163 496.384 97.0767 496.52C95.8966 496.738 94.8871 496.468 94.0483 495.711C93.2066 494.939 92.6149 493.624 92.2732 491.767L91.7347 488.84C90.9322 488.988 90.3633 489.345 90.0282 489.911C89.6774 490.48 89.5917 491.252 89.7713 492.228C89.8958 492.904 90.129 493.553 90.4709 494.173C90.7942 494.781 91.1788 495.279 91.6246 495.669L89.2951 497.464C88.6799 496.862 88.1502 496.105 87.706 495.194C87.259 494.268 86.9414 493.293 86.7532 492.27ZM97.4034 490.604C97.2876 489.974 97.0431 489.442 96.6701 489.006C96.2814 488.573 95.785 488.307 95.1808 488.206L93.8826 488.445L94.3474 490.971C94.6253 492.481 95.26 493.145 96.2513 492.963C96.7234 492.876 97.0678 492.626 97.2844 492.212C97.4824 491.785 97.5221 491.249 97.4034 490.604Z" fill="#EDEDED"/>
<path d="M83.6613 463.711L96.9312 468.218L97.2087 472.072L84.7196 478.409L84.4421 474.555L92.9466 470.358L83.9198 467.302L83.6613 463.711Z" fill="#EDEDED"/>
<path d="M90.5923 442.995C90.6403 442.997 90.975 443.034 91.5965 443.108L91.1965 452.868C92.003 452.725 92.6515 452.335 93.142 451.698C93.6325 451.062 93.8977 450.256 93.9377 449.281C93.9652 448.61 93.8935 448.014 93.7227 447.495C93.5365 446.959 93.2367 446.458 92.8234 445.993L95.0632 444.091C96.4042 445.363 97.0269 447.166 96.9312 449.5C96.8716 450.955 96.5391 452.23 95.9337 453.326C95.3123 454.422 94.4856 455.252 93.4535 455.819C92.4215 456.385 91.266 456.642 89.9871 456.589C88.7241 456.538 87.6012 456.195 86.6183 455.563C85.6201 454.913 84.8625 454.057 84.3455 452.995C83.8133 451.917 83.5737 450.73 83.6267 449.435C83.6785 448.172 83.9971 447.04 84.5826 446.039C85.1681 445.038 85.9842 444.271 87.0309 443.738C88.0623 443.187 89.2494 442.94 90.5923 442.995ZM86.4573 449.527C86.4226 450.374 86.6333 451.095 87.0893 451.691C87.5453 452.286 88.1863 452.664 89.0124 452.826L89.2728 446.472C88.4523 446.566 87.7904 446.891 87.2872 447.447C86.768 448.002 86.4914 448.696 86.4573 449.527Z" fill="#EDEDED"/>
<path d="M80.2492 432.814L80.7514 429.103L98.3985 431.492L97.8963 435.202L80.2492 432.814Z" fill="#EDEDED"/>
<path d="M82.4752 418.912L83.2414 415.247L100.672 418.891L99.9063 422.556L82.4752 418.912Z" fill="#EDEDED"/>
<path d="M100.32 396.14C100.366 396.154 100.68 396.276 101.262 396.506L98.378 405.839C99.1943 405.907 99.921 405.696 100.558 405.206C101.195 404.717 101.657 404.005 101.946 403.073C102.144 402.431 102.227 401.837 102.195 401.291C102.152 400.725 101.99 400.164 101.71 399.609L104.362 398.343C105.333 399.916 105.473 401.818 104.784 404.05C104.354 405.441 103.706 406.589 102.84 407.494C101.959 408.394 100.948 408.986 99.805 409.269C98.6624 409.552 97.4797 409.505 96.2567 409.127C95.0491 408.754 94.0511 408.136 93.2628 407.273C92.4639 406.39 91.9505 405.368 91.7224 404.21C91.4839 403.031 91.5559 401.822 91.9385 400.584C92.3116 399.376 92.9092 398.363 93.7313 397.546C94.5533 396.728 95.5385 396.195 96.687 395.947C97.8248 395.679 99.0358 395.743 100.32 396.14ZM94.6513 401.397C94.401 402.207 94.4201 402.958 94.7087 403.65C94.9972 404.342 95.5201 404.872 96.2772 405.24L98.1548 399.164C97.3373 399.045 96.6143 399.19 95.9857 399.599C95.3417 400.002 94.8969 400.602 94.6513 401.397Z" fill="#EDEDED"/>
<path d="M100.424 382.815C100.024 382.158 99.8244 381.422 99.8237 380.604C99.8293 379.772 100.026 378.9 100.414 377.987L103.595 379.337C103.403 379.708 103.279 379.959 103.222 380.092C102.803 381.079 102.755 381.971 103.077 382.768C103.384 383.559 104.09 384.189 105.195 384.658L110.806 387.04L109.343 390.486L97.4576 385.44L98.8552 382.149L100.424 382.815Z" fill="#EDEDED"/>
<path d="M631.52 784.865L629.497 780.913L622.575 784.455L621.154 781.677L628.076 778.135L625.288 772.687L628.749 770.916L636.402 785.871L625.1 791.655L623.679 788.877L631.52 784.865Z" fill="#EDEDED"/>
<path d="M603.627 797.148L598.422 785.332L601.673 783.9L602.292 785.306C602.52 784.593 602.888 783.959 603.395 783.404C603.909 782.863 604.531 782.431 605.264 782.109C606.816 781.425 608.242 781.33 609.544 781.823C610.845 782.317 611.882 783.442 612.656 785.199L615.597 791.876L612.171 793.385L609.452 787.213C608.614 785.31 607.397 784.709 605.801 785.412C604.981 785.774 604.438 786.327 604.172 787.074C603.913 787.835 604.016 788.742 604.48 789.797L607.053 795.639L603.627 797.148Z" fill="#EDEDED"/>
<path d="M596.59 805.244L593.097 806.589L586.697 789.971L590.191 788.625L596.59 805.244Z" fill="#EDEDED"/>
<path d="M583.908 809.958L580.369 811.18L574.557 794.347L578.096 793.125L583.908 809.958Z" fill="#EDEDED"/>
<path d="M568.717 804.963L562.217 806.936L561.346 804.065L567.846 802.093L568.717 804.963Z" fill="#EDEDED"/>
<path d="M547.322 802.265C548.36 802 549.407 801.865 550.463 801.86C551.522 801.87 552.396 801.993 553.084 802.231L552.54 805.144C551.891 804.93 551.141 804.807 550.291 804.777C549.445 804.762 548.642 804.851 547.883 805.045C546.348 805.437 545.678 806.013 545.872 806.772C545.963 807.129 546.237 807.331 546.695 807.379C547.154 807.427 547.831 807.395 548.726 807.282C549.789 807.176 550.68 807.138 551.398 807.169C552.116 807.201 552.788 807.409 553.415 807.794C554.026 808.183 554.452 808.85 554.694 809.796C554.896 810.586 554.849 811.341 554.554 812.061C554.247 812.799 553.703 813.45 552.922 814.013C552.126 814.58 551.13 815.015 549.937 815.32C549.053 815.546 548.152 815.669 547.232 815.689C546.301 815.728 545.505 815.651 544.844 815.456L545.394 812.566C546.653 812.905 547.934 812.909 549.236 812.576C550.011 812.378 550.565 812.121 550.897 811.805C551.229 811.489 551.352 811.161 551.265 810.82C551.166 810.432 550.887 810.214 550.429 810.166C549.971 810.118 549.267 810.141 548.316 810.235C547.25 810.326 546.365 810.353 545.662 810.318C544.964 810.298 544.309 810.094 543.698 809.705C543.086 809.316 542.664 808.665 542.431 807.75C542.233 806.975 542.289 806.226 542.6 805.502C542.91 804.779 543.472 804.132 544.284 803.561C545.084 803.01 546.097 802.578 547.322 802.265Z" fill="#EDEDED"/>
<path d="M526.178 807.89C526.483 807.549 526.888 807.253 527.391 807.002C527.882 806.769 528.418 806.593 528.997 806.473C530.502 806.162 531.748 806.304 532.737 806.9C533.711 807.499 534.352 808.543 534.66 810.032L535.735 815.226L537.685 814.822L538.269 817.642L536.318 818.046L536.955 821.125L533.289 821.883L532.652 818.804L529.503 819.456L528.919 816.636L532.068 815.984L531.003 810.837C530.893 810.305 530.674 809.917 530.346 809.674C530.006 809.451 529.585 809.391 529.083 809.494C528.504 809.614 528.043 809.873 527.7 810.271L526.178 807.89Z" fill="#EDEDED"/>
<path d="M515.519 822.408C513.543 822.718 511.952 822.481 510.744 821.699C509.539 820.932 508.788 819.6 508.49 817.703L507.35 810.424L510.812 809.882L511.061 811.47C511.57 810.176 512.774 809.38 514.671 809.083C515.651 808.929 516.53 808.962 517.309 809.18C518.073 809.4 518.69 809.773 519.161 810.299C519.632 810.824 519.926 811.458 520.042 812.201C520.228 813.387 519.931 814.389 519.153 815.207C518.358 816.028 517.028 816.584 515.163 816.877L512.223 817.337C512.349 818.143 512.691 818.722 513.248 819.072C513.807 819.437 514.577 819.544 515.557 819.39C516.236 819.284 516.891 819.068 517.52 818.742C518.136 818.435 518.645 818.064 519.046 817.629L520.779 820.005C520.16 820.604 519.39 821.114 518.467 821.533C517.53 821.956 516.547 822.247 515.519 822.408ZM514.136 811.717C513.504 811.816 512.965 812.047 512.519 812.408C512.076 812.785 511.797 813.274 511.68 813.876L511.885 815.18L514.422 814.782C515.939 814.544 516.62 813.928 516.464 812.932C516.39 812.458 516.148 812.107 515.74 811.879C515.319 811.67 514.784 811.616 514.136 811.717Z" fill="#EDEDED"/>
<path d="M492.761 811.947C494.13 811.808 495.392 811.961 496.547 812.407C497.687 812.87 498.619 813.571 499.342 814.511C500.049 815.452 500.467 816.559 500.596 817.833C500.726 819.106 500.539 820.275 500.036 821.339C499.517 822.405 498.745 823.272 497.719 823.939C496.679 824.624 495.475 825.036 494.106 825.175C492.753 825.313 491.546 825.146 490.485 824.675C489.409 824.221 488.587 823.493 488.019 822.489L490.75 820.643C491.538 821.753 492.561 822.244 493.819 822.116C494.79 822.018 495.561 821.618 496.133 820.916C496.705 820.215 496.935 819.315 496.824 818.216C496.712 817.118 496.305 816.283 495.604 815.711C494.903 815.139 494.066 814.902 493.095 815.001C491.822 815.131 490.919 815.818 490.386 817.062L487.337 815.78C487.695 814.714 488.354 813.843 489.314 813.166C490.259 812.491 491.408 812.085 492.761 811.947Z" fill="#EDEDED"/>
<path d="M473.913 818.613L475.629 816.757L475.478 813.472L479.218 813.3L480.036 831.089L476.296 831.261L475.833 821.192L470.605 826.622L466.146 826.827L471.265 821.114L465.073 813.951L469.605 813.742L473.913 818.613Z" fill="#EDEDED"/>
<path d="M445.403 830.711L437.78 830.34C435.958 830.251 434.369 829.821 433.013 829.05C431.64 828.295 430.601 827.267 429.895 825.967C429.174 824.666 428.854 823.177 428.935 821.499C429.017 819.821 429.48 818.37 430.325 817.145C431.153 815.92 432.288 814.99 433.728 814.356C435.152 813.736 436.775 813.471 438.597 813.559L446.22 813.931L445.403 830.711ZM438.634 816.757C436.955 816.675 435.599 817.074 434.563 817.952C433.51 818.846 432.945 820.092 432.867 821.69C432.789 823.289 433.231 824.576 434.193 825.551C435.138 826.543 436.449 827.079 438.127 827.161L441.675 827.333L442.181 816.93L438.634 816.757Z" fill="#EDEDED"/>
<path d="M408.42 817.387C408.425 817.339 408.486 817.008 408.603 816.393L418.311 817.473C418.225 816.659 417.881 815.984 417.28 815.451C416.68 814.917 415.894 814.596 414.924 814.488C414.256 814.414 413.657 814.444 413.127 814.578C412.58 814.726 412.059 814.991 411.566 815.37L409.825 813.003C411.188 811.754 413.03 811.259 415.351 811.517C416.799 811.678 418.048 812.099 419.099 812.779C420.148 813.476 420.919 814.358 421.412 815.428C421.905 816.497 422.081 817.667 421.939 818.939C421.799 820.196 421.38 821.292 420.68 822.228C419.962 823.179 419.056 823.875 417.96 824.316C416.847 824.772 415.646 824.928 414.358 824.785C413.102 824.645 411.995 824.248 411.038 823.594C410.08 822.94 409.372 822.073 408.912 820.991C408.435 819.924 408.271 818.723 408.42 817.387ZM414.648 821.968C415.49 822.061 416.225 821.902 416.85 821.488C417.476 821.075 417.898 820.462 418.117 819.649L411.796 818.946C411.833 819.771 412.111 820.454 412.631 820.995C413.148 821.551 413.821 821.876 414.648 821.968Z" fill="#EDEDED"/>
<path d="M386.229 820.482L393.739 808.65L397.549 809.289L400.762 822.92L396.951 822.281L394.878 813.027L389.78 821.078L386.229 820.482Z" fill="#EDEDED"/>
<path d="M367.718 809.842C367.728 809.795 367.825 809.473 368.009 808.875L377.538 811.022C377.543 810.203 377.276 809.495 376.738 808.898C376.2 808.301 375.455 807.895 374.503 807.681C373.847 807.533 373.248 807.497 372.707 807.571C372.146 807.658 371.599 807.863 371.067 808.186L369.599 805.641C371.091 804.55 372.977 804.262 375.256 804.775C376.676 805.095 377.871 805.652 378.841 806.444C379.806 807.252 380.475 808.215 380.847 809.332C381.218 810.449 381.263 811.632 380.982 812.88C380.704 814.113 380.166 815.157 379.367 816.01C378.549 816.875 377.571 817.467 376.433 817.784C375.276 818.114 374.066 818.137 372.801 817.852C371.568 817.574 370.512 817.057 369.633 816.301C368.753 815.545 368.145 814.605 367.808 813.479C367.452 812.366 367.422 811.153 367.718 809.842ZM373.4 815.084C374.228 815.27 374.975 815.192 375.642 814.851C376.31 814.509 376.797 813.947 377.105 813.163L370.901 811.765C370.846 812.589 371.047 813.299 371.504 813.894C371.956 814.504 372.589 814.901 373.4 815.084Z" fill="#EDEDED"/>
<path d="M356.457 818.681L352.846 817.691L357.554 800.517L361.165 801.507L356.457 818.681Z" fill="#EDEDED"/>
<path d="M342.988 795.929C344.281 796.348 345.359 796.992 346.222 797.86C347.064 798.739 347.618 799.751 347.886 800.898C348.153 802.044 348.09 803.226 347.695 804.444C347.3 805.661 346.658 806.656 345.769 807.427C344.88 808.199 343.839 808.685 342.647 808.887C341.434 809.1 340.181 808.996 338.887 808.577C337.593 808.157 336.525 807.508 335.683 806.63C334.836 805.767 334.279 804.762 334.012 803.615C333.744 802.469 333.808 801.287 334.202 800.069C334.597 798.852 335.239 797.857 336.128 797.086C337.018 796.315 338.061 795.82 339.258 795.603C340.451 795.401 341.694 795.51 342.988 795.929ZM342.04 798.851C341.127 798.555 340.283 798.618 339.507 799.039C338.711 799.471 338.145 800.204 337.81 801.239C337.474 802.274 337.504 803.192 337.901 803.993C338.277 804.805 338.921 805.359 339.835 805.655C340.748 805.951 341.602 805.883 342.398 805.451C343.189 805.035 343.752 804.309 344.088 803.274C344.423 802.239 344.396 801.314 344.004 800.497C343.608 799.696 342.953 799.147 342.04 798.851Z" fill="#EDEDED"/>
<path d="M317.147 800.801C316.029 800.365 315.117 799.709 314.411 798.833C313.684 797.966 313.243 796.961 313.087 795.819C312.925 794.691 313.086 793.509 313.568 792.271C314.05 791.034 314.735 790.047 315.623 789.311C316.505 788.59 317.51 788.149 318.637 787.988C319.744 787.835 320.857 787.977 321.975 788.413C323.51 789.011 324.529 789.966 325.031 791.278L327.219 785.665L330.707 787.025L324.328 803.394L320.996 802.095L321.536 800.709C320.265 801.415 318.802 801.446 317.147 800.801ZM321.463 791.51C320.569 791.162 319.722 791.175 318.923 791.551C318.103 791.935 317.496 792.634 317.101 793.648C316.706 794.662 316.683 795.58 317.032 796.403C317.36 797.235 317.972 797.825 318.866 798.174C319.761 798.523 320.618 798.505 321.437 798.12C322.236 797.744 322.833 797.05 323.228 796.036C323.623 795.022 323.657 794.1 323.328 793.268C322.979 792.445 322.358 791.859 321.463 791.51Z" fill="#EDEDED"/>
<path d="M294.591 783.749C294.611 783.706 294.772 783.41 295.076 782.863L303.956 786.932C304.129 786.132 304.014 785.384 303.611 784.689C303.208 783.994 302.563 783.443 301.676 783.036C301.065 782.756 300.487 782.597 299.941 782.558C299.375 782.527 298.798 782.615 298.21 782.821L297.299 780.027C298.985 779.269 300.889 779.376 303.013 780.349C304.337 780.956 305.391 781.747 306.176 782.722C306.954 783.713 307.409 784.793 307.542 785.962C307.675 787.132 307.475 788.299 306.941 789.462C306.415 790.611 305.672 791.521 304.714 792.19C303.735 792.868 302.656 793.245 301.477 793.321C300.277 793.404 299.088 793.176 297.91 792.636C296.761 792.109 295.834 791.386 295.13 790.464C294.426 789.543 294.025 788.497 293.928 787.326C293.81 786.163 294.031 784.971 294.591 783.749ZM299.068 790.052C299.839 790.405 300.586 790.483 301.31 790.287C302.033 790.091 302.627 789.641 303.09 788.938L297.308 786.288C297.084 787.083 297.134 787.819 297.458 788.495C297.775 789.186 298.312 789.705 299.068 790.052Z" fill="#EDEDED"/>
<path d="M281.56 782.548C280.875 782.895 280.125 783.037 279.31 782.974C278.481 782.903 277.627 782.639 276.747 782.181L278.342 779.115C278.696 779.335 278.937 779.479 279.065 779.545C280.016 780.04 280.901 780.158 281.721 779.899C282.534 779.655 283.217 779 283.771 777.936L286.584 772.528L289.906 774.256L283.946 785.71L280.774 784.06L281.56 782.548Z" fill="#EDEDED"/>
<path d="M334.918 102.635C336.297 102.073 337.583 101.817 338.778 101.866C339.987 101.909 341.038 102.241 341.93 102.862C342.823 103.483 343.504 104.372 343.975 105.528C344.44 106.669 344.573 107.78 344.375 108.863C344.171 109.931 343.651 110.903 342.816 111.779C341.989 112.634 340.887 113.342 339.509 113.903L336.375 115.18L338.123 119.47L334.522 120.937L328.184 105.378L334.918 102.635ZM338.114 111.051C339.196 110.61 339.924 110.046 340.3 109.357C340.67 108.653 340.68 107.872 340.33 107.012C339.974 106.138 339.421 105.586 338.671 105.356C337.914 105.111 336.995 105.209 335.914 105.65L332.98 106.845L335.18 112.246L338.114 111.051Z" fill="white"/>
<path d="M355.363 100.997C355.588 100.262 356.006 99.6234 356.616 99.0799C357.242 98.5312 358.024 98.0984 358.964 97.7814L360.069 101.056C359.664 101.159 359.394 101.233 359.257 101.279C358.242 101.622 357.543 102.178 357.161 102.949C356.774 103.704 356.772 104.65 357.156 105.787L359.104 111.563L355.556 112.76L351.43 100.525L354.818 99.3822L355.363 100.997Z" fill="white"/>
<path d="M376.599 106.423C375.287 106.782 374.033 106.834 372.836 106.581C371.65 106.308 370.631 105.765 369.778 104.953C368.926 104.141 368.331 103.118 367.994 101.883C367.656 100.649 367.648 99.465 367.968 98.3324C368.289 97.1997 368.893 96.222 369.779 95.3991C370.677 94.5566 371.781 93.9561 373.093 93.5975C374.405 93.2389 375.654 93.196 376.84 93.469C378.022 93.7265 379.039 94.2612 379.891 95.0732C380.743 95.8852 381.338 96.9086 381.676 98.1433C382.013 99.378 382.022 100.562 381.701 101.694C381.38 102.827 380.779 103.812 379.897 104.651C379.01 105.474 377.911 106.064 376.599 106.423ZM375.789 103.46C376.715 103.206 377.387 102.691 377.805 101.913C378.234 101.116 378.305 100.193 378.018 99.1432C377.731 98.0937 377.202 97.3425 376.432 96.8897C375.672 96.4173 374.829 96.3076 373.903 96.5607C372.977 96.8139 372.3 97.3391 371.871 98.1364C371.438 98.9183 371.365 99.834 371.651 100.884C371.938 101.933 372.469 102.692 373.244 103.16C374.015 103.613 374.863 103.713 375.789 103.46Z" fill="white"/>
<path d="M395.663 88.2696C396.839 88.0325 397.961 88.0919 399.028 88.448C400.108 88.7852 401.022 89.3925 401.77 90.2699C402.515 91.1317 403.019 92.2135 403.282 93.5153C403.544 94.8171 403.5 96.0174 403.151 97.1162C402.798 98.1993 402.19 99.1134 401.329 99.8584C400.479 100.585 399.467 101.066 398.29 101.303C396.549 101.654 395.113 101.373 393.982 100.458L394.276 101.917L390.771 102.624L387.251 85.1668L390.922 84.4268L392.16 90.5673C392.879 89.3612 394.047 88.5953 395.663 88.2696ZM397.048 98.42C397.989 98.2303 398.694 97.7617 399.164 97.0141C399.646 96.2477 399.779 95.3313 399.564 94.2647C399.349 93.1982 398.873 92.4129 398.135 91.9088C397.409 91.3859 396.575 91.2194 395.634 91.4091C394.693 91.5988 393.982 92.0769 393.5 92.8433C393.03 93.5908 392.903 94.4978 393.118 95.5644C393.333 96.6309 393.803 97.4256 394.529 97.9485C395.267 98.4526 396.107 98.6098 397.048 98.42Z" fill="white"/>
<path d="M409.705 81.0283L413.411 80.4922L415.961 98.1167L412.255 98.6528L409.705 81.0283Z" fill="white"/>
<path d="M437.016 89.4078C437.021 89.4556 437.027 89.7924 437.035 90.4182L427.307 91.2961C427.554 92.0771 428.025 92.6691 428.72 93.0723C429.415 93.4754 430.249 93.6332 431.221 93.5454C431.89 93.485 432.471 93.3362 432.964 93.099C433.471 92.8444 433.928 92.4818 434.335 92.0113L436.514 93.9835C435.428 95.4792 433.721 96.332 431.395 96.5419C429.945 96.6728 428.637 96.5097 427.471 96.0526C426.304 95.5796 425.372 94.8685 424.676 93.9192C423.98 92.9699 423.574 91.8579 423.459 90.5831C423.345 89.3242 423.538 88.1662 424.037 87.109C424.551 86.0345 425.3 85.1717 426.286 84.5205C427.286 83.8519 428.431 83.4594 429.722 83.3429C430.981 83.2293 432.144 83.3974 433.213 83.8471C434.282 84.2969 435.149 85.0058 435.815 85.9739C436.495 86.9246 436.895 88.0692 437.016 89.4078ZM430 86.1613C429.156 86.2375 428.468 86.5405 427.937 87.0703C427.407 87.6002 427.115 88.2851 427.063 89.1253L433.397 88.5537C433.196 87.7525 432.787 87.1387 432.17 86.7124C431.552 86.2702 430.829 86.0865 430 86.1613Z" fill="white"/>
<path d="M462.143 81.9568C463.759 81.9441 465.042 82.4139 465.994 83.3665C466.961 84.3029 467.453 85.723 467.468 87.627L467.526 95.0187L463.782 95.0483L463.728 88.2325C463.72 87.2085 463.498 86.4503 463.062 85.9577C462.642 85.449 462.04 85.1977 461.256 85.2039C460.376 85.2109 459.683 85.5044 459.175 86.0844C458.668 86.6484 458.418 87.4904 458.427 88.6104L458.478 95.0902L454.734 95.1197L454.681 88.3039C454.664 86.272 453.84 85.2625 452.209 85.2754C451.345 85.2822 450.659 85.5756 450.151 86.1556C449.644 86.7196 449.394 87.5616 449.403 88.6816L449.454 95.1614L445.711 95.191L445.609 82.2794L449.185 82.2511L449.196 83.7391C449.672 83.1913 450.253 82.7707 450.938 82.4773C451.64 82.1837 452.407 82.0337 453.239 82.0271C454.151 82.0199 454.976 82.1974 455.715 82.5596C456.454 82.9058 457.05 83.4211 457.503 84.1055C458.026 83.4294 458.686 82.9041 459.483 82.5298C460.296 82.1554 461.183 81.9644 462.143 81.9568Z" fill="white"/>
<path d="M492.66 97.0451C491.594 96.9302 490.566 96.6906 489.575 96.3264C488.586 95.9462 487.811 95.5247 487.25 95.0618L488.778 92.5231C489.312 92.9507 489.971 93.3275 490.757 93.6536C491.544 93.9637 492.327 94.1608 493.107 94.2448C494.682 94.4146 495.511 94.1097 495.595 93.3302C495.635 92.9643 495.448 92.6787 495.036 92.4733C494.623 92.268 493.978 92.0616 493.099 91.8542C492.066 91.582 491.219 91.3056 490.557 91.0251C489.895 90.7445 489.338 90.3143 488.886 89.7345C488.449 89.1564 488.283 88.3822 488.388 87.4118C488.475 86.6005 488.783 85.9095 489.311 85.3388C489.857 84.7539 490.594 84.3345 491.523 84.0806C492.467 83.8283 493.552 83.7682 494.777 83.9002C495.684 83.998 496.571 84.1982 497.44 84.5011C498.326 84.7897 499.045 85.1407 499.595 85.5541L498.069 88.069C497.008 87.311 495.81 86.8599 494.473 86.7159C493.678 86.6302 493.07 86.6772 492.648 86.8571C492.226 87.0369 491.996 87.3018 491.959 87.6518C491.916 88.0495 492.101 88.3511 492.513 88.5564C492.925 88.7618 493.593 88.9866 494.516 89.231C495.547 89.5191 496.386 89.8026 497.032 90.0814C497.679 90.3443 498.221 90.7648 498.658 91.343C499.094 91.9211 499.262 92.6794 499.161 93.618C499.075 94.4134 498.76 95.0955 498.216 95.6645C497.672 96.2335 496.92 96.6432 495.959 96.8938C495.017 97.1301 493.917 97.1805 492.66 97.0451Z" fill="white"/>
<path d="M512.094 99.7301C510.754 99.5014 509.594 99.0196 508.616 98.2846C507.656 97.5366 506.961 96.6146 506.531 95.5187C506.101 94.4229 505.994 93.244 506.209 91.9823C506.424 90.7205 506.917 89.6439 507.685 88.7525C508.454 87.8611 509.414 87.2295 510.565 86.8577C511.734 86.4728 512.989 86.3947 514.33 86.6234C515.671 86.8521 516.821 87.3405 517.781 88.0885C518.743 88.8208 519.44 89.7349 519.869 90.8307C520.299 91.9266 520.407 93.1055 520.191 94.3672C519.976 95.629 519.484 96.7056 518.715 97.597C517.946 98.4884 516.985 99.1279 515.832 99.5155C514.681 99.8872 513.435 99.9588 512.094 99.7301ZM512.611 96.7019C513.557 96.8633 514.384 96.6797 515.091 96.151C515.816 95.6093 516.27 94.8021 516.453 93.7296C516.636 92.6571 516.474 91.753 515.966 91.0171C515.477 90.2683 514.76 89.8131 513.813 89.6517C512.867 89.4903 512.031 89.6804 511.306 90.2222C510.583 90.7481 510.13 91.5474 509.947 92.6199C509.764 93.6924 509.925 94.6044 510.43 95.356C510.938 96.0918 511.664 96.5404 512.611 96.7019Z" fill="white"/>
<path d="M530.5 84.9708L534.151 85.7975L530.219 103.166L526.568 102.339L530.5 84.9708Z" fill="white"/>
<path d="M554.921 96.3502L546.174 107.3L542.455 106.252L540.737 92.3524L544.457 93.4007L545.515 102.825L551.456 95.3735L554.921 96.3502Z" fill="white"/>
<path d="M572.155 109.091C572.139 109.136 572.004 109.445 571.751 110.018L562.541 106.765C562.44 107.578 562.622 108.312 563.086 108.968C563.55 109.624 564.242 110.115 565.163 110.44C565.796 110.664 566.387 110.77 566.933 110.76C567.5 110.739 568.067 110.6 568.633 110.342L569.792 113.042C568.182 113.95 566.276 114.014 564.073 113.237C562.7 112.752 561.579 112.059 560.709 111.158C559.845 110.242 559.294 109.207 559.057 108.054C558.819 106.901 558.913 105.721 559.339 104.515C559.76 103.323 560.418 102.35 561.312 101.597C562.226 100.834 563.267 100.361 564.434 100.179C565.621 99.988 566.826 100.108 568.048 100.54C569.24 100.96 570.228 101.598 571.013 102.452C571.797 103.306 572.29 104.311 572.492 105.469C572.715 106.616 572.602 107.824 572.155 109.091ZM567.128 103.218C566.328 102.936 565.577 102.925 564.874 103.186C564.171 103.446 563.621 103.948 563.223 104.69L569.22 106.807C569.371 105.995 569.255 105.267 568.871 104.623C568.493 103.963 567.912 103.495 567.128 103.218Z" fill="white"/>
<path d="M585.278 109.211C585.933 108.809 586.669 108.607 587.486 108.603C588.318 108.606 589.192 108.799 590.106 109.184L588.767 112.37C588.396 112.179 588.144 112.056 588.011 112C587.023 111.585 586.131 111.539 585.335 111.864C584.545 112.174 583.917 112.883 583.453 113.989L581.09 119.609L577.639 118.158L582.642 106.255L585.939 107.64L585.278 109.211Z" fill="white"/>
</svg>
