<svg width="600" height="600" viewBox="0 0 600 600" fill="none" xmlns="http://www.w3.org/2000/svg">
<path d="M300 600C465.685 600 600 465.685 600 300C600 134.315 465.685 0 300 0C134.315 0 0 134.315 0 300C0 465.685 134.315 600 300 600Z" fill="#FF6584"/>
<path opacity="0.2" d="M287.259 222.394C311.568 222.394 331.274 202.687 331.274 178.378C331.274 154.069 311.568 134.363 287.259 134.363C262.95 134.363 243.243 154.069 243.243 178.378C243.243 202.687 262.95 222.394 287.259 222.394Z" fill="black"/>
<path opacity="0.2" d="M388.031 510.811C430.252 510.811 464.479 476.584 464.479 434.363C464.479 392.142 430.252 357.915 388.031 357.915C345.81 357.915 311.583 392.142 311.583 434.363C311.583 476.584 345.81 510.811 388.031 510.811Z" fill="black"/>
<path opacity="0.2" d="M65.444 376.448C75.9992 376.448 84.556 367.891 84.556 357.336C84.556 346.781 75.9992 338.224 65.444 338.224C54.8887 338.224 46.332 346.781 46.332 357.336C46.332 367.891 54.8887 376.448 65.444 376.448Z" fill="black"/>
<path opacity="0.2" d="M388.61 121.622C394.048 121.622 398.456 117.214 398.456 111.776C398.456 106.338 394.048 101.931 388.61 101.931C383.172 101.931 378.764 106.338 378.764 111.776C378.764 117.214 383.172 121.622 388.61 121.622Z" fill="black"/>
<path opacity="0.2" d="M521.235 251.351C526.993 251.351 531.66 246.943 531.66 241.506C531.66 236.068 526.993 231.66 521.235 231.66C515.478 231.66 510.811 236.068 510.811 241.506C510.811 246.943 515.478 251.351 521.235 251.351Z" fill="black"/>
<path opacity="0.2" d="M115.251 196.911C125.806 196.911 134.363 188.354 134.363 177.799C134.363 167.244 125.806 158.687 115.251 158.687C104.696 158.687 96.139 167.244 96.139 177.799C96.139 188.354 104.696 196.911 115.251 196.911Z" fill="black"/>
</svg>
