<svg width="32" height="32" viewBox="0 0 32 32" fill="none" xmlns="http://www.w3.org/2000/svg">
<path d="M16.96 2.70667C15.0526 2.56782 13.1377 2.84129 11.3454 3.50848C9.55314 4.17567 7.92553 5.22094 6.57324 6.57324C5.22094 7.92553 4.17567 9.55314 3.50848 11.3454C2.84129 13.1377 2.56782 15.0526 2.70667 16.96C3.18667 24.0133 9.34667 29.3333 16.4133 29.3333H21.3333C22.0667 29.3333 22.6667 28.7333 22.6667 28C22.6667 27.2667 22.0667 26.6667 21.3333 26.6667H16.44C11.4667 26.6667 6.90667 23.44 5.66667 18.6267C3.68 10.8933 10.88 3.68 18.6133 5.68C23.44 6.90667 26.6667 11.4667 26.6667 16.44V17.9067C26.6667 18.96 25.72 20 24.6667 20C23.6133 20 22.6667 18.96 22.6667 17.9067V16.24C22.6667 12.8933 20.2933 9.88 16.9867 9.41333C15.9346 9.2569 14.8604 9.35404 13.8535 9.69669C12.8466 10.0393 11.9361 10.6176 11.1978 11.3832C10.4595 12.1489 9.91482 13.0798 9.60907 14.0986C9.30332 15.1173 9.24536 16.1943 9.44 17.24C9.67385 18.5 10.2662 19.6657 11.1459 20.5975C12.0257 21.5293 13.1555 22.1876 14.4 22.4933C16.8533 23.0667 19.1867 22.28 20.72 20.72C21.9067 22.3467 24.28 23.2 26.4533 22.3333C28.24 21.6267 29.3333 19.7867 29.3333 17.8667V16.4267C29.3333 9.34667 24.0133 3.18667 16.96 2.70667V2.70667ZM16 20C13.7867 20 12 18.2133 12 16C12 13.7867 13.7867 12 16 12C18.2133 12 20 13.7867 20 16C20 18.2133 18.2133 20 16 20Z" fill="white"/>
</svg>
