<svg width="613" height="518" viewBox="0 0 613 518" fill="none" xmlns="http://www.w3.org/2000/svg">
<path d="M317 518C460.042 518 576 402.042 576 259C576 115.958 460.042 0 317 0C173.958 0 58 115.958 58 259C58 402.042 173.958 518 317 518Z" fill="#6C63FF"/>
<path opacity="0.2" d="M306 192C326.987 192 344 174.987 344 154C344 133.013 326.987 116 306 116C285.013 116 268 133.013 268 154C268 174.987 285.013 192 306 192Z" fill="black"/>
<path opacity="0.2" d="M306 475C342.451 475 372 445.451 372 409C372 372.549 342.451 343 306 343C269.549 343 240 372.549 240 409C240 445.451 269.549 475 306 475Z" fill="black"/>
<path opacity="0.2" d="M114.5 325C123.613 325 131 317.613 131 308.5C131 299.387 123.613 292 114.5 292C105.387 292 98 299.387 98 308.5C98 317.613 105.387 325 114.5 325Z" fill="black"/>
<path opacity="0.2" d="M393.5 105C398.194 105 402 101.194 402 96.5C402 91.8056 398.194 88 393.5 88C388.806 88 385 91.8056 385 96.5C385 101.194 388.806 105 393.5 105Z" fill="black"/>
<path opacity="0.2" d="M294.5 282C300.851 282 306 276.851 306 270.5C306 264.149 300.851 259 294.5 259C288.149 259 283 264.149 283 270.5C283 276.851 288.149 282 294.5 282Z" fill="black"/>
<path opacity="0.2" d="M508 217C512.971 217 517 213.194 517 208.5C517 203.806 512.971 200 508 200C503.029 200 499 203.806 499 208.5C499 213.194 503.029 217 508 217Z" fill="black"/>
<path opacity="0.2" d="M435.5 311C442.404 311 448 305.18 448 298C448 290.82 442.404 285 435.5 285C428.596 285 423 290.82 423 298C423 305.18 428.596 311 435.5 311Z" fill="black"/>
<path opacity="0.2" d="M157.5 170C166.613 170 174 162.613 174 153.5C174 144.387 166.613 137 157.5 137C148.387 137 141 144.387 141 153.5C141 162.613 148.387 170 157.5 170Z" fill="black"/>
<path d="M373.477 408C346.228 407.963 319.003 406.395 291.932 403.303C210.508 394.086 135.413 372.308 80.4801 341.979C24.8748 311.279 -3.57842 275.332 0.360402 240.76C3.08919 216.807 26.3162 195.368 71.3679 175.22C71.9825 174.947 72.6808 174.927 73.3097 175.166C73.9385 175.406 74.4464 175.884 74.7219 176.496C74.9975 177.108 75.018 177.804 74.7792 178.431C74.5403 179.059 74.0616 179.566 73.4479 179.841C30.1737 199.193 7.9179 219.307 5.40866 241.331C1.7161 273.736 29.2515 307.906 82.9423 337.55C137.305 367.564 211.729 389.128 292.505 398.271C373.281 407.415 450.66 403.034 510.391 385.935C569.384 369.047 603.906 341.902 607.597 309.496C610.095 287.574 597.98 264.33 572.563 242.275C572.055 241.834 571.743 241.21 571.697 240.54C571.65 239.87 571.873 239.209 572.315 238.702C572.757 238.196 573.384 237.885 574.056 237.839C574.728 237.792 575.391 238.014 575.9 238.455C602.634 261.653 615.341 286.417 612.645 310.068C608.706 344.64 572.891 373.313 511.794 390.802C472.015 402.189 424.535 408 373.477 408Z" fill="white"/>
</svg>
